<?xml version="1.0" encoding="UTF-8" standalone="no"?>
<!-- Creator: CorelDRAW X8 -->

<svg
   xmlns:dc="http://purl.org/dc/elements/1.1/"
   xmlns:cc="http://creativecommons.org/ns#"
   xmlns:rdf="http://www.w3.org/1999/02/22-rdf-syntax-ns#"
   xmlns:svg="http://www.w3.org/2000/svg"
   xmlns="http://www.w3.org/2000/svg"
   xmlns:sodipodi="http://sodipodi.sourceforge.net/DTD/sodipodi-0.dtd"
   xmlns:inkscape="http://www.inkscape.org/namespaces/inkscape"
   xml:space="preserve"
   width="88"
   height="88"
   version="1.1"
   style="clip-rule:evenodd;fill-rule:evenodd;image-rendering:optimizeQuality;shape-rendering:geometricPrecision;text-rendering:geometricPrecision"
   viewBox="0 0 992.59155 992.5166"
   id="svg2"
   inkscape:version="0.91 r13725"
   sodipodi:docname="codamic-charity.svg"
   inkscape:export-filename="/home/lxsameer/src/Codamic/Charity/app/assets/images/codamic-charity.png"
   inkscape:export-xdpi="90"
   inkscape:export-ydpi="90"><metadata
     id="metadata66"><rdf:RDF><cc:Work
         rdf:about=""><dc:format>image/svg+xml</dc:format><dc:type
           rdf:resource="http://purl.org/dc/dcmitype/StillImage" /><dc:title></dc:title></cc:Work></rdf:RDF></metadata><sodipodi:namedview
     pagecolor="#ffffff"
     bordercolor="#666666"
     borderopacity="0.56078431"
     objecttolerance="10"
     gridtolerance="10"
     guidetolerance="10"
     inkscape:pageopacity="0"
     inkscape:pageshadow="2"
     inkscape:window-width="1600"
     inkscape:window-height="881"
     id="namedview64"
     showgrid="false"
     units="px"
     inkscape:zoom="1.2975809"
     inkscape:cx="375.46501"
     inkscape:cy="-13.020379"
     inkscape:window-x="0"
     inkscape:window-y="19"
     inkscape:window-maximized="0"
     inkscape:current-layer="g3715" /><defs
     id="defs4"><style
       type="text/css"
       id="style6"><![CDATA[
    .fil0 {fill:#A53692}
    .fil2 {fill:#00AFEF}
    .fil1 {fill:#333333;fill-rule:nonzero}
   ]]></style></defs><g
     id="Layer_x0020_1"
     transform="translate(0,-1908.6283)"><metadata
       id="CorelCorpID_0Corel-Layer" /><g
       id="_2461843331952"
       transform="translate(0,1534.0043)"><text
         xml:space="preserve"
         style="font-style:normal;font-weight:normal;font-size:451.17800903px;line-height:125%;font-family:sans-serif;letter-spacing:0px;word-spacing:0px;fill:#000000;fill-opacity:1;stroke:none;stroke-width:1px;stroke-linecap:butt;stroke-linejoin:miter;stroke-opacity:1"
         x="1376.8497"
         y="617.27112"
         id="text3418"
         sodipodi:linespacing="125%"><tspan
           sodipodi:role="line"
           id="tspan3420"
           x="1376.8497"
           y="617.27112" /></text>
<g
         id="g3696"><g
           id="g3715"><g
             id="g5528"
             transform="matrix(0.685569,0,0,0.685569,28.458877,401.43504)"><g
               style="fill:#5db442;fill-opacity:1"
               transform="matrix(-1,0,0,-1,1347.9067,1369.2557)"
               id="g4216"><path
                 class="fil2"
                 d="m 152,1073 c -23,-11 -43,-28 -56,-50 -15,-22 -22,-48 -22,-75 l 0,-527 c 0,-16 2,-32 8,-46 -1,3 -1,7 -1,10 0,35 28,63 62,63 16,0 30,-6 41,-16 l 0,516 c 0,6 1,11 4,16 3,4 7,8 12,10 l 1,1 4,2 483,279 c 4,2 9,3 13,3 5,0 10,-1 14,-3 l 483,-279 4,-2 0,-1 c 5,-2 10,-6 13,-10 3,-5 4,-10 4,-16 l 0,-527 c 0,-6 -1,-11 -4,-16 -3,-4 -8,-8 -13,-10 l 0,-1 -4,-1 -483,-279 c -4,-3 -9,-4 -14,-4 -4,0 -9,1 -13,4 L 205,392 c 0,-2 0,-4 0,-7 0,-34 -28,-62 -62,-62 -18,0 -34,7 -45,19 14,-20 33,-36 54,-46 L 633,18 C 654,6 677,0 701,0 c 25,0 48,6 69,18 l 481,278 c 23,11 42,28 56,50 15,22 22,48 22,75 l 0,527 c 0,27 -7,53 -22,75 -14,22 -33,39 -56,50 l -481,278 c -21,12 -44,18 -69,18 -24,0 -47,-6 -68,-18 L 152,1073 Z"
                 id="path38"
                 inkscape:connector-curvature="0"
                 style="fill:#5db442;fill-opacity:1" /><path
                 class="fil2"
                 d="m 143,244 c 78,0 141,63 141,141 0,79 -63,142 -141,142 C 65,527 2,464 2,385 2,307 65,244 143,244 Z m 0,79 c 34,0 62,28 62,62 0,35 -28,63 -62,63 -34,0 -62,-28 -62,-63 0,-34 28,-62 62,-62 z"
                 id="path48"
                 inkscape:connector-curvature="0"
                 style="fill:#5db442;fill-opacity:1" /></g><g
               style="fill:#5db442;fill-opacity:1"
               id="XMLID_1_"
               transform="matrix(8.3443305,0,0,8.3443305,259.31996,307.20398)"><path
                 style="fill:#5db442;fill-opacity:1"
                 d="m 33.2,18.4 c -4.5,0 -9.1,1.5 -12.6,5 -6.9,7.1 -6.7,18.1 0,25.2 l 27.4,29 27.4,-29 c 6.7,-7.1 6.9,-18.1 0,-25.2 -6.9,-6.8 -18.2,-6.8 -25.2,0 L 48,25.8 45.8,23.4 c -3.5,-3.5 -8.1,-5 -12.6,-5 z"
                 class="st0"
                 id="XMLID_3_"
                 inkscape:connector-curvature="0" /></g></g></g></g></g></g></svg>